<mxfile host="app.diagrams.net" agent="Mozilla/5.0 (Windows NT 10.0; Win64; x64) AppleWebKit/537.36 (KHTML, like Gecko) Chrome/139.0.0.0 Safari/537.36" version="28.2.3">
  <diagram name="Page-1" id="qZLoijVNlv6iNMNbFU3R">
    <mxGraphModel dx="786" dy="399" grid="1" gridSize="10" guides="1" tooltips="1" connect="1" arrows="1" fold="1" page="1" pageScale="1" pageWidth="850" pageHeight="1100" math="0" shadow="0">
      <root>
        <mxCell id="0" />
        <mxCell id="1" parent="0" />
        <mxCell id="cDlGnSPMZtBIGxpKheTH-3" value="" style="edgeStyle=orthogonalEdgeStyle;rounded=0;orthogonalLoop=1;jettySize=auto;html=1;" edge="1" parent="1" source="cDlGnSPMZtBIGxpKheTH-1" target="cDlGnSPMZtBIGxpKheTH-2">
          <mxGeometry relative="1" as="geometry" />
        </mxCell>
        <mxCell id="cDlGnSPMZtBIGxpKheTH-1" value="Plan&amp;nbsp;" style="ellipse;whiteSpace=wrap;html=1;" vertex="1" parent="1">
          <mxGeometry x="320" y="10" width="120" height="80" as="geometry" />
        </mxCell>
        <mxCell id="cDlGnSPMZtBIGxpKheTH-5" value="" style="edgeStyle=orthogonalEdgeStyle;rounded=0;orthogonalLoop=1;jettySize=auto;html=1;" edge="1" parent="1" source="cDlGnSPMZtBIGxpKheTH-2" target="cDlGnSPMZtBIGxpKheTH-4">
          <mxGeometry relative="1" as="geometry" />
        </mxCell>
        <mxCell id="cDlGnSPMZtBIGxpKheTH-2" value="Develop" style="ellipse;whiteSpace=wrap;html=1;" vertex="1" parent="1">
          <mxGeometry x="320" y="170" width="120" height="80" as="geometry" />
        </mxCell>
        <mxCell id="cDlGnSPMZtBIGxpKheTH-7" value="" style="edgeStyle=orthogonalEdgeStyle;rounded=0;orthogonalLoop=1;jettySize=auto;html=1;" edge="1" parent="1" source="cDlGnSPMZtBIGxpKheTH-4" target="cDlGnSPMZtBIGxpKheTH-6">
          <mxGeometry relative="1" as="geometry" />
        </mxCell>
        <mxCell id="cDlGnSPMZtBIGxpKheTH-4" value="Build" style="ellipse;whiteSpace=wrap;html=1;" vertex="1" parent="1">
          <mxGeometry x="320" y="330" width="120" height="80" as="geometry" />
        </mxCell>
        <mxCell id="cDlGnSPMZtBIGxpKheTH-9" value="" style="edgeStyle=orthogonalEdgeStyle;rounded=0;orthogonalLoop=1;jettySize=auto;html=1;" edge="1" parent="1" source="cDlGnSPMZtBIGxpKheTH-6" target="cDlGnSPMZtBIGxpKheTH-8">
          <mxGeometry relative="1" as="geometry" />
        </mxCell>
        <mxCell id="cDlGnSPMZtBIGxpKheTH-6" value="Test" style="ellipse;whiteSpace=wrap;html=1;" vertex="1" parent="1">
          <mxGeometry x="320" y="490" width="120" height="80" as="geometry" />
        </mxCell>
        <mxCell id="cDlGnSPMZtBIGxpKheTH-11" value="" style="edgeStyle=orthogonalEdgeStyle;rounded=0;orthogonalLoop=1;jettySize=auto;html=1;" edge="1" parent="1" source="cDlGnSPMZtBIGxpKheTH-8" target="cDlGnSPMZtBIGxpKheTH-10">
          <mxGeometry relative="1" as="geometry" />
        </mxCell>
        <mxCell id="cDlGnSPMZtBIGxpKheTH-8" value="Release" style="ellipse;whiteSpace=wrap;html=1;" vertex="1" parent="1">
          <mxGeometry x="320" y="650" width="120" height="80" as="geometry" />
        </mxCell>
        <mxCell id="cDlGnSPMZtBIGxpKheTH-13" value="" style="edgeStyle=orthogonalEdgeStyle;rounded=0;orthogonalLoop=1;jettySize=auto;html=1;" edge="1" parent="1" source="cDlGnSPMZtBIGxpKheTH-10" target="cDlGnSPMZtBIGxpKheTH-12">
          <mxGeometry relative="1" as="geometry" />
        </mxCell>
        <mxCell id="cDlGnSPMZtBIGxpKheTH-10" value="Deploy" style="ellipse;whiteSpace=wrap;html=1;" vertex="1" parent="1">
          <mxGeometry x="320" y="810" width="120" height="80" as="geometry" />
        </mxCell>
        <mxCell id="cDlGnSPMZtBIGxpKheTH-15" value="" style="edgeStyle=orthogonalEdgeStyle;rounded=0;orthogonalLoop=1;jettySize=auto;html=1;" edge="1" parent="1" source="cDlGnSPMZtBIGxpKheTH-12" target="cDlGnSPMZtBIGxpKheTH-14">
          <mxGeometry relative="1" as="geometry" />
        </mxCell>
        <mxCell id="cDlGnSPMZtBIGxpKheTH-12" value="Operator" style="ellipse;whiteSpace=wrap;html=1;" vertex="1" parent="1">
          <mxGeometry x="320" y="970" width="120" height="80" as="geometry" />
        </mxCell>
        <mxCell id="cDlGnSPMZtBIGxpKheTH-14" value="Monitor" style="ellipse;whiteSpace=wrap;html=1;" vertex="1" parent="1">
          <mxGeometry x="320" y="1130" width="120" height="80" as="geometry" />
        </mxCell>
      </root>
    </mxGraphModel>
  </diagram>
</mxfile>
